<svg xmlns="http://www.w3.org/2000/svg" viewBox="0 0 329.13 383"><defs><style>.cls-1{fill:#3253a1;}.cls-2{fill:#efb813;}</style></defs><title>icono_banco</title><g id="Capa_2" data-name="Capa 2"><g id="Capa_1-2" data-name="Capa 1"><path class="cls-1" d="M84.64,108.17c34.31,70.3,131.31,63.52,160,.13l57.14,37.25c6.82,4.44,13.68,8.82,20.44,13.36,5.85,3.93,7.83,8.06,6.39,12.74-1.51,4.92-5.75,7.43-12.7,7.44H62q-24.73,0-49.48,0C6,179.08,2,176.57.45,171.56c-1.44-4.63.58-8.88,6-12.38Z"/><path class="cls-1" d="M89.74,74.5C89,34.54,123.42-1.63,167.57.07c38.28,1.47,72.24,32.11,72.17,74.82-.07,43.53-36.32,74.57-75.57,74.45C124.44,149.22,88.87,115.84,89.74,74.5ZM150.09,27a61.86,61.86,0,0,0,0,6.55c.44,4-1,5.35-4.92,5.13-5.64-.31-11.32-.08-17.17-.08V44h8v62a18.52,18.52,0,0,0-3.36.27c-1.89.56-5.43-1.51-5,2.54.09.91,3.2,2.06,5,2.14,5.76.27,11.53.1,17.42.1V122h8c0-2.12.18-4.44,0-6.73-.35-3.57,1.62-4.14,4.53-4.21,3.13-.07,4.1,1.35,3.88,4.26-.17,2.28,0,7.68,0,7.68h7c0-2.32.11-4.61,0-6.88-.21-3.43.69-4.93,4.57-5.09a35.5,35.5,0,0,0,11.69-3c6.56-2.68,10.18-7.79,10.69-15.26.54-8-2.09-14.14-9.46-17.4-3.42-1.52-7.09-2.43-11.15-3.78,1.73-.62,3.05-1.17,4.41-1.54,7.7-2.12,11.94-6.82,12.19-13.58a15.55,15.55,0,0,0-10.94-15.86c-3.64-1.23-7.49-1.81-11.74-2.8v-5c0-6.75-.42-7.06-7.92-5.58,0,2-.06,4.15,0,6.28.1,2.86.15,5.13-3.89,5.18-4.23.05-4.33-2.32-4.3-5.41,0-2.11-.21-4.22-.33-6.49-1.75-.1-3-.24-4.3-.23A21,21,0,0,0,150.09,27Z"/><path class="cls-1" d="M164.55,383H9.06c-7.89,0-9-1.11-9-8.82,0-5.33,0-10.66,0-16,0-4.79,2.44-6.95,7-7,1.17,0,2.34,0,3.5,0h307c1.67,0,3.34,0,5,.09,4.55.36,6.85,2.54,6.59,7.44-.28,5.49,0,11-.07,16.5,0,6.41-1.46,7.83-8,7.83q-51.26,0-102.5,0Z"/><path class="cls-1" d="M49.67,265q0,31.2,0,62.4c0,8-1.21,9.15-8.92,9-5.39-.08-10.79,0-16.18.12-6.62.14-8.47-1.49-8.52-8.06-.06-9.66,0-19.32,0-29q0-48.19,0-96.4c0-8.19,1-9.21,9.12-9.24,5.66,0,11.32-.09,17,0,5.93.06,7.4,1.47,7.52,7.25q.21,10.49.23,21,0,21.47,0,42.93Z"/><path class="cls-1" d="M313,265.31q0,31.47,0,62.94c0,7.05-1,8-8.1,8-6.1,0-12.2.21-18.29.13-5.89-.07-7.2-1.23-7.21-6.91q-.09-63.92,0-127.83c0-6.29,1.55-7.66,7.64-7.72,5.82-.07,11.65-.08,17.48,0,7.3.1,8.48,1.36,8.48,8.91q0,24.23,0,48.46Z"/><path class="cls-1" d="M137.19,265q0,32,0,63.94c0,6.45-1.49,7.59-8,7.37-6-.2-11.93.13-17.89,0-6.36-.13-7.26-1.15-7.26-7.28q0-63.43,0-126.87c0-7.35.92-8.28,8.3-8.32,6.16,0,12.32.08,18.48,0,4.34-.07,6.34,1.7,6.31,6.23-.1,21.64,0,43.29,0,64.93Z"/><path class="cls-1" d="M191.87,265q0-31.25,0-62.48c0-8.18.77-8.9,8.81-8.91,6,0,12,.2,18,.06,4.81-.11,6.4,2.24,6.39,6.74-.06,28,0,56,0,84q0,22.25,0,44.49c0,6-.95,7-6.87,7.09-6.61.1-13.23.21-19.84.24-4.45,0-6.48-1.91-6.44-6.72.19-21.49.08-43,.08-64.47Z"/><path class="cls-1" d="M154.76,89.93c0-4,.1-8,0-12-.09-2.93,1-4.43,4.06-4.13,3.95.39,8,.38,11.82,1.32,8.28,2,11.61,8,10.75,18.07-.58,6.7-5.35,11.25-12.83,12.21-13.78,1.77-13.78,1.77-13.78-12Z"/><path class="cls-1" d="M154.76,56.24a6,6,0,0,1,0-2c1.3-3.46-3.22-9.3,2.78-10.47,11.62-2.28,19.1,1.44,21.22,9.14a12,12,0,0,1-9,15.2,98.7,98.7,0,0,1-10.35,1.18c-3.42.36-4.9-1.16-4.73-4.6C154.88,61.89,154.77,59.06,154.76,56.24Z"/><circle class="cls-1" cx="165.04" cy="75" r="75"/><path class="cls-2" d="M161,121v-8.5q-13.44-.5-20.79-6.87T132.8,88h19.38q.28,5.67,2.14,8.16A7,7,0,0,0,160,98.8l0-16.42q-12.95-3-18.71-8.19t-5.76-13.81A19.21,19.21,0,0,1,142.49,45q6.88-5.85,18.55-6.1V33h8v6.27q11.7.3,18.25,5.95t7,15.78H177.08s-.9-5.39-2.21-6.92A7.47,7.47,0,0,0,169,51.69V66.77c9.77,2.29,16.56,5.22,20.56,8.79s6,8.38,6,14.45q0,10.56-6.8,16.15c-4.52,3.73-19.76,6.4-19.76,6.4V121Zm1-56.46V51h-.4c-2.89,0-5,.55-6.5,1.64a5.87,5.87,0,0,0-2.16,5,4.93,4.93,0,0,0,2,4.1Q157,63.3,162,64.54Zm6,34.33c3.18,0,5.6-.56,7.24-1.69a5.71,5.71,0,0,0,2.46-5,5.65,5.65,0,0,0-2.09-4.6c-1.39-1.15-3.93-2.23-7.61-3.26Z"/></g></g></svg>