<svg xmlns="http://www.w3.org/2000/svg" viewBox="0 0 482.17 130.05"><defs><style>.cls-1{fill:#fdc10e;}.cls-2{fill:#fcfdfd;}.cls-3{fill:#fcc00f;}.cls-4{fill:#fcfcfd;}.cls-5{fill:#fbfcfc;}.cls-6{fill:#fbbf0f;}.cls-7{fill:#fbfbfc;}.cls-8{fill:#f7be11;}.cls-9{fill:#f5bc12;}.cls-10{fill:#00377c;}.cls-11{fill:#01387c;}.cls-12{fill:#01377b;}.cls-13{fill:#02387a;}</style></defs><title>logo_tigo</title><g id="Capa_2" data-name="Capa 2"><g id="Capa_1-2" data-name="Capa 1"><path class="cls-1" d="M397.91,102.23a9.49,9.49,0,0,1-1.34-.8q-11.51-9.68-23-19.38c-1.2-1-1.16-2.16.13-2.89,17.13-9.82,30.94-23.3,42.79-38.88,3.81-5,7.21-10.34,10.76-15.55,1-1.49,1.61-1.67,3.1-.62L455.2,41.67c1.34.94,1.47,1.41.7,2.89A142.57,142.57,0,0,1,434,75.4a119.47,119.47,0,0,1-32.34,25C400.43,101,399.21,101.59,397.91,102.23Z"/><path class="cls-2" d="M120,60.18a19.73,19.73,0,0,1,5.27-13.6c5-5.1,11.17-6.18,17.79-4.56,6.39,1.56,10.17,6,11.93,12.23a22.82,22.82,0,0,1-.7,14.46c-3,8.15-10.06,11.73-18.11,11.23C125.72,79.29,119.86,70.67,120,60.18Zm9.25.1a54.47,54.47,0,0,0,1.62,6.81c1.12,3,3.6,4.43,6.8,4.6s5.84-1,7.17-3.94a16,16,0,0,0-.42-14.4c-1.48-2.89-4.26-3.84-7.38-3.7a6.68,6.68,0,0,0-6.31,4.52A49.63,49.63,0,0,0,129.21,60.28Z"/><path class="cls-3" d="M244.9,40.45c8.77,0,14.79,5.67,15.24,14.91.44,8.86-2.69,16.45-10,21.75-5.5,4-11.7,4.9-18,2.11-5.22-2.3-7.89-6.73-8.37-12.23-.76-8.71,1.95-16.23,8.74-22A18.75,18.75,0,0,1,244.9,40.45Zm6.72,15.61a31,31,0,0,0-1.3-4.65,6.16,6.16,0,0,0-6-3.85,8.49,8.49,0,0,0-6.4,2.53A18.93,18.93,0,0,0,232.37,67c.47,3.25,2.3,5.75,5.76,6.44s6.09-.85,8.29-3.28C249.77,66.47,251.29,62,251.62,56.06Z"/><path class="cls-3" d="M348.93,67.74l6.13-13.31c1.84-4,3.7-8,5.49-12a1.8,1.8,0,0,1,1.91-1.25c1.84.05,3.68,0,5.52,0,1.41,0,1.86.68,1.25,1.9-5.8,11.58-11.54,23.19-17.45,34.71a45.72,45.72,0,0,1-9.83,13,24,24,0,0,1-9.56,5.51c-1.28.37-1.64.17-2-1.08-.42-1.42-.83-2.83-1.24-4.25s-.27-1.64,1.09-2.13a22.9,22.9,0,0,0,12.21-10.6,3.26,3.26,0,0,0,.31-2.13c-2.31-11-4.69-22-7-33-.34-1.55,0-2,1.56-2,1.72,0,3.44,0,5.16,0,1.21,0,1.67.49,1.88,1.63,1.44,8,2.93,16,4.41,24C348.75,67.12,348.84,67.38,348.93,67.74Z"/><path class="cls-4" d="M106.4,61.3c1.83,0,3.59-.1,5.34,0a4.38,4.38,0,0,1,4.21,4.6c0,2.07,0,4.15,0,6.23a8,8,0,0,1-5.36,7.63c-7,2.67-17.26,1.74-23.43-4.52-4.43-4.49-5.82-10-5.13-16,1.09-9.59,8.42-16,18.06-17.29a22.29,22.29,0,0,1,8.22.2c5.43,1.31,7.92,5.13,6.88,10.95a14,14,0,0,1-1.7-.68,18,18,0,0,0-14.75-1.86,10.39,10.39,0,0,0-7.28,11,22,22,0,0,0,.52,3.9,9.39,9.39,0,0,0,8.41,7.39,21.81,21.81,0,0,0,4.64,0c1.49-.15,2-1,2-2.45s.07-3,0-4.55S106.62,62.84,106.4,61.3Z"/><path class="cls-3" d="M308.52,64c0,3,.22,5.92,2.82,8,1.94,1.54,4.25,1.71,6.6,1.52a19.53,19.53,0,0,0,7.32-2.07c1.34-.68,1.88-.41,2.18,1.06a37.55,37.55,0,0,1,.68,3.76c.05.49-.2,1.32-.56,1.49-6.3,3-12.82,4.33-19.51,1.48-4.54-1.93-6.74-5.81-7.6-10.5-1.69-9.27,3.11-20.29,11.06-25.38A16.64,16.64,0,0,1,325.13,41c4.1,1.06,6.85,3.64,7.58,7.88.77,4.47-.49,8.32-4.4,11a22.25,22.25,0,0,1-10.23,3.4C315,63.6,311.81,63.73,308.52,64Zm1.39-7.19c2.9.4,9.1-.37,11.57-1.53a7.55,7.55,0,0,0,2.24-1.53,3.53,3.53,0,0,0-1.82-6A8.13,8.13,0,0,0,319,47.6C314.94,48.27,310.87,52.43,309.91,56.78Z"/><path class="cls-2" d="M43.39,50.05c0,5.39-.14,10.61,0,15.82.11,2.87,2,4.42,4.91,4.53A13.58,13.58,0,0,0,55,69.31a2.8,2.8,0,0,1,.7-.13,33.47,33.47,0,0,1-.41,5.11C54.8,76.53,53,77.61,50.86,78a16.2,16.2,0,0,1-10-1c-3.77-1.68-5.63-4.81-6.25-8.75a23.92,23.92,0,0,1-.25-3.69c0-7,0-14.09,0-21.13A10.12,10.12,0,0,1,37.39,36a6.12,6.12,0,0,1,5.77-1.89v7.94H55.57a39.74,39.74,0,0,1,0,4.38c-.22,2-2.29,3.56-4.76,3.61-2.09,0-4.18,0-6.27,0Z"/><path class="cls-4" d="M91.94,86.46c6.2,8.22,14.1,13.26,24.71,13,10.3-.27,18.68-4.32,24.8-13a3.84,3.84,0,0,1,.16.88,52.86,52.86,0,0,1-.68,7.58c-1,4.2-4,7-7.4,9.38a28.85,28.85,0,0,1-37.28-3A14.67,14.67,0,0,1,91.63,90c0-1.14,0-2.27,0-3.41Z"/><path class="cls-3" d="M385.41,65.77a142.28,142.28,0,0,0,10.95-21.21c2.55-6.43,4.78-13,7.12-19.5.58-1.62,1-1.92,2.64-1.34l13.31,4.88c-2.09,2.92-4,5.78-6.11,8.55a156.1,156.1,0,0,1-26.94,28.26,8.23,8.23,0,0,1-.78.53Z"/><path class="cls-5" d="M79.31,71.92c-.12,1.58-.15,3-.36,4.42A3.45,3.45,0,0,1,76.79,79c-4.61,2-11.42-.73-13.12-5.48a17.84,17.84,0,0,1-1-5.61c-.1-8.14,0-16.29,0-24.44,0-.11,0-.23.09-.63a35.41,35.41,0,0,1,5.27.59c2.54.64,3.87,2.95,3.88,6.19,0,4.92,0,9.83,0,14.74,0,.8,0,1.59,0,2.39,0,3.79,1.32,5.09,5.12,5.15C77.7,71.93,78.37,71.92,79.31,71.92Z"/><path class="cls-6" d="M376.63,71.37c1.49-4.2,3.1-8.37,4.45-12.61a162.88,162.88,0,0,0,6.42-30.5c.26-2.18.61-2.49,2.73-2.12,2.43.42,4.86.88,7.46,1.35-.43,1.4-.83,2.72-1.25,4C393.08,42,389.19,52.21,383.58,61.7c-2,3.42-4.49,6.57-6.75,9.85Z"/><path class="cls-7" d="M121.81,37.64c-.3-3.66-.3-7,2.38-9.57,8.69-8.39,22-6.67,28.58.42A7.78,7.78,0,0,1,154.9,34V37.8c-4.48-5.37-9.84-8.2-16.56-8C131.78,29.91,126.13,32.16,121.81,37.64Z"/><path class="cls-5" d="M61.89,34.19a5.3,5.3,0,0,1,5.31-5.33,5.4,5.4,0,1,1,0,10.8A5.32,5.32,0,0,1,61.89,34.19Z"/><path class="cls-8" d="M370.42,85.08l16.79,13.19-.08.21a3,3,0,0,1-.67-.14Q377.72,94.17,369,90c-1.44-.7-1.57-1.62-.46-2.81C369.16,86.51,369.76,85.81,370.42,85.08Z"/><path class="cls-9" d="M389.82,103.48l-6.91-2-18-5.14c-2.25-.64-2.48-1.49-.82-3.42L390,103.12Z"/><path class="cls-6" d="M376.83,71.55l-.28.32-.13-.08.21-.42Z"/><path class="cls-3" d="M385.6,65.94l-.26.13c0-.1.05-.2.07-.3Z"/><path class="cls-10" d="M177.65,45.36l-.26,0,.13-.17Z"/><path class="cls-11" d="M129.21,60.28a49.63,49.63,0,0,1,1.48-6.11A6.68,6.68,0,0,1,137,49.65c3.12-.14,5.9.81,7.38,3.7a16,16,0,0,1,.42,14.4c-1.33,3-4,4.11-7.17,3.94s-5.68-1.58-6.8-4.6A54.47,54.47,0,0,1,129.21,60.28Z"/><path class="cls-10" d="M241.09.05Q354.75.05,468.4,0a13.81,13.81,0,0,1,13.77,13.72q-.07,51.33,0,102.65a13.57,13.57,0,0,1-13.59,13.68H14.06c-6.94,0-12.46-4.36-13.8-11A14.32,14.32,0,0,1,0,116.24Q0,65,0,13.71A13.43,13.43,0,0,1,13.66.05Zm135.74,71.5c2.26-3.28,4.73-6.43,6.75-9.85,5.61-9.49,9.5-19.73,12.86-30.18.42-1.31.82-2.63,1.25-4-2.6-.47-5-.93-7.46-1.35-2.12-.37-2.47-.06-2.73,2.12a162.88,162.88,0,0,1-6.42,30.5c-1.35,4.24-3,8.41-4.45,12.61l-.21.42.13.08Zm8.77-5.61a8.23,8.23,0,0,0,.78-.53,156.1,156.1,0,0,0,26.94-28.26c2.07-2.77,4-5.63,6.11-8.55l-13.31-4.88c-1.6-.58-2.06-.28-2.64,1.34-2.34,6.51-4.57,13.07-7.12,19.5a142.28,142.28,0,0,1-10.95,21.21l-.07.3ZM177.65,45.36l-.13-.12c.07-.71.13-1.43.23-2.13.19-1.45-.12-1.85-1.55-1.86s-3,0-4.44,0c-1,0-1.48.41-1.64,1.44-.72,4.61-1.45,9.22-2.29,13.8-1.32,7.26-2.74,14.49-4.12,21.74-.22,1.2.12,1.61,1.38,1.62,1.68,0,3.36-.08,5,0,1.24.08,1.69-.45,1.89-1.58q1.19-6.72,2.46-13.41c.64-3.4,1.06-6.86,2.8-10,1.6-2.84,3.53-5.36,6.61-6.69,3.45-1.49,6.26.26,6.36,4a21.91,21.91,0,0,1-.37,4.64c-1.28,7-2.64,14.1-4,21.14-.29,1.53,0,1.83,1.55,1.84s3-.08,4.55,0c1.29.08,1.85-.36,2.08-1.66.93-5.38,2-10.74,2.93-16.12a23.31,23.31,0,0,1,3.08-8.86c1.47-2.25,3.22-4.2,5.84-5.08,2.81-1,6.11-.33,6.26,4a19.56,19.56,0,0,1-.24,4c-1.31,7.3-2.69,14.58-4.06,21.87-.26,1.36.05,1.77,1.43,1.78,1.63,0,3.28-.09,4.91,0,1.31.09,1.74-.49,2-1.67,1-5.37,2.09-10.72,3-16.1a81.28,81.28,0,0,0,1.45-11.37c.18-6.39-4.22-10.47-10.6-10.23a15.43,15.43,0,0,0-11.13,5.34c-.28.3-.58.58-.64.64A26.06,26.06,0,0,0,195,42.41c-2.81-2.34-6.18-2.28-9.57-1.55A16.71,16.71,0,0,0,177.65,45.36Zm220.26,56.87c1.3-.64,2.52-1.21,3.72-1.83A119.47,119.47,0,0,0,434,75.4,142.57,142.57,0,0,0,455.9,44.56c.77-1.48.64-2-.7-2.89L430.36,24.11c-1.49-1.05-2.08-.87-3.1.62-3.55,5.21-6.95,10.53-10.76,15.55-11.85,15.58-25.66,29.06-42.79,38.88-1.29.73-1.33,1.87-.13,2.89q11.49,9.7,23,19.38A9.49,9.49,0,0,0,397.91,102.23ZM120,60.18c-.1,10.49,5.76,19.11,16.18,19.76,8.05.5,15.07-3.08,18.11-11.23a22.82,22.82,0,0,0,.7-14.46C153.19,48.07,149.41,43.58,143,42c-6.62-1.62-12.82-.54-17.79,4.56A19.73,19.73,0,0,0,120,60.18ZM244.9,40.45A18.75,18.75,0,0,0,232.46,45c-6.79,5.77-9.5,13.29-8.74,22,.48,5.5,3.15,9.93,8.37,12.23,6.33,2.79,12.53,1.88,18-2.11,7.33-5.3,10.46-12.89,10-21.75C259.69,46.12,253.67,40.49,244.9,40.45Zm104,27.29c-.09-.36-.18-.62-.22-.88-1.48-8-3-16-4.41-24-.21-1.14-.67-1.68-1.88-1.63-1.72.07-3.44,0-5.16,0-1.55,0-1.9.44-1.56,2,2.35,11,4.73,22,7,33a3.26,3.26,0,0,1-.31,2.13A22.9,22.9,0,0,1,330.22,89c-1.36.49-1.48.78-1.09,2.13s.82,2.83,1.24,4.25c.38,1.25.74,1.45,2,1.08A24,24,0,0,0,342,90.9a45.72,45.72,0,0,0,9.83-13c5.91-11.52,11.65-23.13,17.45-34.71.61-1.22.16-1.88-1.25-1.9-1.84,0-3.68,0-5.52,0a1.8,1.8,0,0,0-1.91,1.25c-1.79,4-3.65,8-5.49,12Zm-74-21.82c.17-1.21.3-2.11.43-3,.16-1.17-.22-1.63-1.42-1.65-1.52,0-3,0-4.55,0s-1.66.25-1.85,1.62c-.27,2-.53,4-.89,5.91q-2.72,14.7-5.48,29.39c-.23,1.28.08,1.67,1.41,1.68,1.75,0,3.51,0,5.27,0a1.34,1.34,0,0,0,1.61-1.31c.86-4.78,1.79-9.56,2.66-14.34.66-3.66,1.37-7.29,3.5-10.46a13.52,13.52,0,0,1,6.29-5.51c3.06-1.17,6.88-.42,6.82,4.52a30.18,30.18,0,0,1-.49,5.11c-1.24,6.78-2.56,13.55-3.84,20.32-.23,1.23.1,1.64,1.33,1.65,1.76,0,3.52,0,5.28,0,1.11,0,1.54-.4,1.74-1.46.89-4.9,1.91-9.78,2.78-14.69.75-4.23,1.88-8.4,1.81-12.76-.11-7.13-5.34-11.51-12.41-10.37A17.83,17.83,0,0,0,274.92,45.92ZM106.4,61.3c.22,1.54.5,3,.6,4.53s0,3,0,4.55-.56,2.3-2,2.45a21.81,21.81,0,0,1-4.64,0,9.39,9.39,0,0,1-8.41-7.39,22,22,0,0,1-.52-3.9,10.39,10.39,0,0,1,7.28-11,18,18,0,0,1,14.75,1.86,14,14,0,0,0,1.7.68c1-5.82-1.45-9.64-6.88-10.95a22.29,22.29,0,0,0-8.22-.2c-9.64,1.31-17,7.7-18.06,17.29-.69,6.08.7,11.56,5.13,16,6.17,6.26,16.47,7.19,23.43,4.52a8,8,0,0,0,5.36-7.63c.09-2.08,0-4.16,0-6.23a4.38,4.38,0,0,0-4.21-4.6C110,61.2,108.23,61.3,106.4,61.3ZM308.52,64c3.29-.24,6.44-.37,9.56-.73a22.25,22.25,0,0,0,10.23-3.4c3.91-2.66,5.17-6.51,4.4-11C332,44.62,329.23,42,325.13,41a16.64,16.64,0,0,0-13.62,2.35c-7.95,5.09-12.75,16.11-11.06,25.38.86,4.69,3.06,8.57,7.6,10.5,6.69,2.85,13.21,1.51,19.51-1.48.36-.17.61-1,.56-1.49a37.55,37.55,0,0,0-.68-3.76c-.3-1.47-.84-1.74-2.18-1.06a19.53,19.53,0,0,1-7.32,2.07c-2.35.19-4.66,0-6.6-1.52C308.74,69.89,308.49,67,308.52,64ZM43.39,50.05h1.12c2.09,0,4.18,0,6.27,0,2.47,0,4.54-1.56,4.76-3.61a39.74,39.74,0,0,0,0-4.38H43.16V34.11A6.12,6.12,0,0,0,37.39,36a10.12,10.12,0,0,0-3.07,7.5c.07,7,0,14.08,0,21.13a23.92,23.92,0,0,0,.25,3.69c.62,3.94,2.48,7.07,6.25,8.74a16.13,16.13,0,0,0,10,1c2.11-.43,3.94-1.51,4.46-3.75a33.47,33.47,0,0,0,.41-5.11,2.8,2.8,0,0,0-.7.13,13.58,13.58,0,0,1-6.68,1.09c-2.91-.11-4.8-1.66-4.91-4.53C43.25,60.66,43.39,55.44,43.39,50.05ZM91.94,86.46l-.3.1c0,1.14,0,2.27,0,3.41a14.67,14.67,0,0,0,4.62,11.28,28.85,28.85,0,0,0,37.28,3c3.37-2.41,6.43-5.18,7.4-9.38a52.86,52.86,0,0,0,.68-7.58,3.84,3.84,0,0,0-.16-.88c-6.12,8.7-14.5,12.75-24.8,13C106,99.72,98.14,94.68,91.94,86.46ZM79.31,71.92c-.94,0-1.61,0-2.29,0-3.8-.06-5.09-1.36-5.12-5.15,0-.8,0-1.59,0-2.39,0-4.91,0-9.82,0-14.74,0-3.24-1.34-5.55-3.88-6.19a35.41,35.41,0,0,0-5.27-.59c-.06.4-.09.52-.09.63,0,8.15-.06,16.3,0,24.44a17.84,17.84,0,0,0,1,5.61c1.7,4.75,8.51,7.51,13.12,5.48A3.45,3.45,0,0,0,79,76.34C79.16,74.94,79.19,73.5,79.31,71.92Zm42.5-34.28c4.32-5.48,10-7.73,16.53-7.88,6.72-.16,12.08,2.67,16.56,8V34a7.78,7.78,0,0,0-2.13-5.55c-6.58-7.09-19.89-8.81-28.58-.42C121.51,30.66,121.51,34,121.81,37.64ZM61.89,34.19a5.32,5.32,0,0,0,5.29,5.47,5.4,5.4,0,1,0,0-10.8A5.3,5.3,0,0,0,61.89,34.19ZM370.42,85.08c-.66.73-1.26,1.43-1.89,2.09-1.11,1.19-1,2.11.46,2.81q8.73,4.2,17.47,8.36a3,3,0,0,0,.67.14l.08-.21Zm19.4,18.4.14-.36-25.9-10.19c-1.66,1.93-1.43,2.78.82,3.42l18,5.14Z"/><path class="cls-3" d="M177.65,45.36a16.71,16.71,0,0,1,7.76-4.5c3.39-.73,6.76-.79,9.57,1.55a26.06,26.06,0,0,1,3.28,4.07c.06-.06.36-.34.64-.64A15.43,15.43,0,0,1,210,40.5c6.38-.24,10.78,3.84,10.6,10.23a81.28,81.28,0,0,1-1.45,11.37c-.91,5.38-2,10.73-3,16.1-.21,1.18-.64,1.76-2,1.67-1.63-.12-3.28,0-4.91,0-1.38,0-1.69-.42-1.43-1.78,1.37-7.29,2.75-14.57,4.06-21.87a19.56,19.56,0,0,0,.24-4c-.15-4.33-3.45-5-6.26-4-2.62.88-4.37,2.83-5.84,5.08A23.31,23.31,0,0,0,197,62.08c-1,5.38-2,10.74-2.93,16.12-.23,1.3-.79,1.74-2.08,1.66-1.51-.1-3,0-4.55,0s-1.84-.31-1.55-1.84c1.33-7,2.69-14.09,4-21.14a21.91,21.91,0,0,0,.37-4.64c-.1-3.74-2.91-5.49-6.36-4-3.08,1.33-5,3.85-6.61,6.69-1.74,3.1-2.16,6.56-2.8,10Q173.2,71.56,172,78.28c-.2,1.13-.65,1.66-1.89,1.58-1.67-.1-3.35,0-5,0-1.26,0-1.6-.42-1.38-1.62,1.38-7.25,2.8-14.48,4.12-21.74.84-4.58,1.57-9.19,2.29-13.8.16-1,.61-1.47,1.64-1.44,1.48,0,3,0,4.44,0s1.74.41,1.55,1.86c-.1.7-.16,1.42-.23,2.13l-.13.17Z"/><path class="cls-3" d="M274.92,45.92a17.83,17.83,0,0,1,10-5.34c7.07-1.14,12.3,3.24,12.41,10.37.07,4.36-1.06,8.53-1.81,12.76-.87,4.91-1.89,9.79-2.78,14.69-.2,1.06-.63,1.5-1.74,1.46-1.76-.08-3.52,0-5.28,0-1.23,0-1.56-.42-1.33-1.65,1.28-6.77,2.6-13.54,3.84-20.32a30.18,30.18,0,0,0,.49-5.11c.06-4.94-3.76-5.69-6.82-4.52a13.52,13.52,0,0,0-6.29,5.51c-2.13,3.17-2.84,6.8-3.5,10.46-.87,4.78-1.8,9.56-2.66,14.34a1.34,1.34,0,0,1-1.61,1.31c-1.76,0-3.52,0-5.27,0-1.33,0-1.64-.4-1.41-1.68q2.74-14.7,5.48-29.39c.36-2,.62-3.94.89-5.91.19-1.37.43-1.61,1.85-1.62s3,0,4.55,0c1.2,0,1.58.48,1.42,1.65C275.22,43.81,275.09,44.71,274.92,45.92Z"/><path class="cls-12" d="M251.62,56.06c-.33,5.95-1.85,10.41-5.2,14.12-2.2,2.43-4.89,3.95-8.29,3.28s-5.29-3.19-5.76-6.44A18.93,18.93,0,0,1,238,50.09a8.49,8.49,0,0,1,6.4-2.53,6.16,6.16,0,0,1,6,3.85A31,31,0,0,1,251.62,56.06Z"/><path class="cls-13" d="M309.91,56.78c1-4.35,5-8.51,9-9.18a8.13,8.13,0,0,1,2.95.09,3.53,3.53,0,0,1,1.82,6,7.55,7.55,0,0,1-2.24,1.53C319,56.41,312.81,57.18,309.91,56.78Z"/></g></g></svg>